<?xml version="1.0" standalone="no"?>
<!DOCTYPE svg PUBLIC "-//W3C//DTD SVG 20010904//EN"
 "http://www.w3.org/TR/2001/REC-SVG-20010904/DTD/svg10.dtd">
<svg version="1.0" xmlns="http://www.w3.org/2000/svg"
 width="1000.000000pt" height="1250.000000pt" viewBox="0 0 1000.000000 1250.000000"
 preserveAspectRatio="xMidYMid meet">

<g transform="translate(0.000000,1250.000000) scale(0.100000,-0.100000)"
fill="#000" stroke="none">
<path d="M0 6250 l0 -6250 5000 0 5000 0 0 6250 0 6250 -5000 0 -5000 0 0
-6250z m5430 4006 c58 -9 119 -18 137 -21 18 -3 74 -14 125 -25 636 -140 1183
-425 1684 -877 45 -40 85 -69 89 -65 5 4 5 2 2 -4 -7 -11 29 -51 42 -46 3 1 6
-2 6 -6 0 -14 87 -112 95 -107 4 2 16 -5 26 -17 11 -12 13 -18 5 -13 -9 5 -12
3 -9 -6 3 -8 10 -13 15 -12 6 1 21 -10 34 -24 13 -14 18 -23 10 -18 -9 5 -12
3 -9 -6 3 -8 10 -13 16 -12 29 7 234 -294 340 -497 219 -417 306 -727 356
-1255 10 -104 19 -370 12 -364 -5 5 -12 74 -36 399 -15 191 -42 369 -80 514
-79 307 -201 595 -365 866 -78 129 -175 273 -188 278 -4 1 -6 3 -5 5 4 6 -24
47 -31 43 -4 -3 -34 26 -66 64 -79 95 -299 308 -420 405 -509 411 -1082 671
-1695 769 -346 56 -745 52 -1090 -10 -230 -42 -549 -140 -760 -234 -114 -50
-321 -157 -370 -190 -14 -9 -63 -41 -109 -71 -47 -30 -114 -75 -149 -101 -35
-26 -69 -45 -75 -41 -5 3 -7 1 -4 -4 10 -16 -21 -39 -34 -26 -26 26 347 273
599 398 227 112 540 226 662 240 14 2 39 6 55 10 178 37 371 66 515 79 107 9
569 -3 670 -18z m-1755 -376 c-3 -5 -12 -10 -18 -10 -7 0 -6 4 3 10 19 12 23
12 15 0z m-40 -20 c-3 -5 -12 -10 -18 -10 -7 0 -6 4 3 10 19 12 23 12 15 0z
m-35 -15 c0 -2 -22 -16 -50 -30 -27 -14 -50 -23 -50 -20 0 2 21 16 48 29 53
28 52 28 52 21z m-110 -60 c0 -2 -10 -9 -22 -15 -22 -11 -22 -10 -4 4 21 17
26 19 26 11z m-330 -219 c0 -2 -8 -10 -17 -17 -16 -13 -17 -12 -4 4 13 16 21
21 21 13z m-236 -24 c3 -5 -28 -36 -69 -71 -41 -34 -95 -81 -121 -104 -26 -23
-51 -41 -56 -39 -5 1 -7 -2 -4 -6 3 -5 -4 -18 -15 -28 -12 -11 -71 -75 -133
-144 -61 -69 -119 -132 -128 -141 -10 -9 -18 -19 -18 -23 0 -4 -13 -21 -29
-39 -48 -53 -220 -323 -287 -452 -120 -230 -247 -591 -294 -836 -16 -80 -48
-332 -56 -431 -4 -49 -10 -88 -15 -88 -4 0 -10 -12 -13 -27 -14 -77 6 204 24
347 87 670 359 1246 830 1751 116 125 306 295 327 293 8 -1 12 1 9 4 -7 6 23
42 35 42 4 0 10 -4 13 -8z m196 -6 c0 -2 -8 -10 -17 -17 -16 -13 -17 -12 -4 4
13 16 21 21 21 13z m-110 -90 c0 -2 -8 -10 -17 -17 -16 -13 -17 -12 -4 4 13
16 21 21 21 13z m-41 -38 c-2 -2 -22 -19 -44 -38 l-40 -35 34 38 c19 20 39 37
45 37 5 0 7 -1 5 -2z m-179 -172 c0 -2 -18 -19 -40 -36 -22 -17 -40 -28 -40
-23 0 4 17 20 38 35 39 29 42 30 42 24z m4670 -161 c41 -41 69 -75 62 -75 -12
0 -109 92 -141 133 -33 42 11 10 79 -58z m271 -722 c13 -16 12 -17 -3 -4 -10
7 -18 15 -18 17 0 8 8 3 21 -13z m-6044 -1395 c-3 -8 -6 -5 -6 6 -1 11 2 17 5
13 3 -3 4 -12 1 -19z m0 -110 c-2 -18 -4 -4 -4 32 0 36 2 50 4 33 2 -18 2 -48
0 -65z m6720 -10 c-3 -7 -5 -2 -5 12 0 14 2 19 5 13 2 -7 2 -19 0 -25z m0 -80
c-2 -13 -4 -3 -4 22 0 25 2 35 4 23 2 -13 2 -33 0 -45z m-6710 -40 c-2 -13 -4
-3 -4 22 0 25 2 35 4 23 2 -13 2 -33 0 -45z m6700 -75 c-3 -10 -5 -4 -5 12 0
17 2 24 5 18 2 -7 2 -21 0 -30z m-6690 -35 c-3 -7 -5 -2 -5 12 0 14 2 19 5 13
2 -7 2 -19 0 -25z m6680 -50 c-3 -8 -6 -5 -6 6 -1 11 2 17 5 13 3 -3 4 -12 1
-19z m-6660 -90 c-3 -8 -6 -5 -6 6 -1 11 2 17 5 13 3 -3 4 -12 1 -19z m370
-370 c-3 -8 -6 -5 -6 6 -1 11 2 17 5 13 3 -3 4 -12 1 -19z m4099 -162 c-1 -8
-8 -21 -15 -30 -7 -8 -10 -20 -6 -26 3 -5 2 -10 -3 -10 -5 0 -12 -9 -15 -21
-3 -12 -10 -18 -16 -14 -6 3 -11 0 -11 -8 0 -8 -7 -20 -15 -27 -9 -7 -13 -15
-11 -18 3 -2 -11 -19 -30 -37 -18 -18 -34 -37 -34 -43 0 -12 -69 -82 -81 -82
-5 0 -9 -6 -9 -12 0 -7 -12 -24 -26 -37 -14 -13 -23 -30 -20 -38 3 -8 2 -11
-4 -8 -5 3 -16 -10 -26 -30 -9 -19 -20 -33 -24 -30 -4 3 -14 -3 -21 -12 -12
-14 -12 -15 -1 -9 11 7 12 4 3 -13 -7 -11 -16 -21 -21 -21 -6 0 -10 -7 -10
-15 0 -7 -8 -19 -17 -24 -10 -6 -14 -11 -10 -11 4 0 -4 -12 -18 -27 -14 -15
-25 -33 -25 -40 0 -6 -10 -19 -22 -27 -15 -11 -18 -16 -8 -17 9 0 6 -5 -7 -11
-13 -6 -23 -16 -23 -23 0 -6 -9 -21 -19 -32 -11 -12 -17 -24 -14 -27 4 -3 1
-6 -5 -6 -5 0 -18 -3 -27 -7 -16 -6 -16 -4 -1 19 9 13 13 28 9 33 -5 4 -2 5 5
1 9 -5 12 -3 10 6 -3 17 52 128 64 128 4 0 8 7 8 15 0 8 10 23 22 35 12 11 18
20 12 20 -5 0 -1 5 9 11 9 5 17 15 17 21 0 6 7 19 16 29 8 9 16 24 18 32 1 8
22 41 46 73 25 31 63 81 85 109 64 83 168 195 182 195 6 0 15 5 19 12 5 7 2 8
-7 3 -8 -4 -5 1 6 12 11 11 28 19 38 17 15 -3 23 13 18 39 -1 5 3 6 8 3 5 -3
8 -12 7 -20z m684 0 c0 -2 -8 -10 -17 -17 -16 -13 -17 -12 -4 4 13 16 21 21
21 13z m64 -19 c-2 -7 -14 -19 -27 -26 -21 -13 -21 -12 2 13 27 29 33 32 25
13z m-64 -32 c-12 -14 -7 -19 13 -16 5 1 5 -4 2 -10 -5 -7 -12 -6 -24 5 -14
15 -14 18 -1 26 21 14 24 12 10 -5z m-2819 -47 c6 1 8 -2 4 -8 -3 -5 -1 -10 4
-10 6 0 11 -7 11 -15 0 -8 -2 -15 -4 -15 -2 0 -12 -3 -22 -7 -11 -4 -15 -3
-10 5 8 13 -29 54 -40 44 -3 -4 -1 4 6 17 12 24 13 24 27 5 8 -10 19 -18 24
-16z m3089 -18 c0 -5 -5 -10 -11 -10 -5 0 -7 5 -4 10 3 6 8 10 11 10 2 0 4 -4
4 -10z m176 -22 c-10 -48 -15 -66 -41 -155 -31 -110 -99 -290 -148 -394 -20
-42 -47 -105 -60 -141 -34 -89 -78 -181 -91 -190 -6 -4 -7 -8 -3 -8 4 0 3 -9
-3 -20 -6 -11 -16 -20 -23 -19 -9 0 -8 2 1 6 10 4 10 8 1 19 -10 12 -9 13 4 8
12 -4 15 -1 12 15 -2 11 2 24 8 28 11 7 16 23 19 61 1 7 8 10 16 7 13 -5 13
-3 1 11 -11 14 -11 18 5 29 13 10 16 20 11 36 -6 18 -4 21 9 16 14 -6 15 -3 5
16 -6 12 -8 19 -4 14 11 -10 34 58 29 86 l-5 22 10 -22 c14 -31 21 -29 15 3
-3 16 -1 23 5 19 6 -3 13 7 17 22 3 15 10 43 14 60 9 36 3 76 -11 67 -16 -10
4 31 24 49 24 20 31 22 20 5 -4 -7 -7 -22 -5 -33 2 -19 1 -19 -6 -1 -13 30
-24 3 -12 -28 5 -14 7 -34 3 -43 -3 -10 -2 -15 2 -10 5 4 9 15 10 25 4 33 18
77 31 99 13 20 12 22 -3 17 -16 -5 -16 -4 -3 8 20 17 40 63 40 92 0 13 7 27
16 30 9 3 14 12 11 19 -2 6 3 21 12 31 9 11 10 16 4 12 -7 -4 -13 -3 -13 2 0
6 7 13 16 16 9 4 14 9 11 12 -3 3 -15 0 -27 -6 -12 -6 -24 -10 -26 -7 -3 2 12
12 32 22 25 12 33 20 24 25 -9 6 -8 10 6 19 17 9 17 12 4 22 -13 9 -12 10 3 5
13 -4 18 -1 16 12 -2 26 0 32 11 32 6 0 8 -10 6 -22z m-426 1 c0 -4 -7 -10
-16 -13 -8 -3 -12 -2 -9 4 3 6 1 10 -4 10 -6 0 -11 -5 -11 -12 0 -6 -3 -9 -6
-5 -11 10 6 26 26 24 11 -1 20 -4 20 -8z m36 -9 c0 -12 -4 -16 -9 -11 -5 5 -6
14 -3 20 10 15 12 14 12 -9z m-2780 -57 c3 -12 9 -21 13 -20 10 3 43 -33 86
-93 22 -30 42 -57 45 -60 3 -3 11 -16 18 -30 13 -27 34 -62 42 -70 10 -10 41
-66 51 -92 6 -16 15 -26 19 -23 4 3 6 -5 2 -17 -5 -22 -6 -22 -15 5 -5 15 -12
25 -17 22 -9 -6 -35 23 -27 31 3 3 -2 14 -11 24 -54 58 -62 69 -62 84 0 9 -7
16 -15 16 -9 0 -12 6 -8 17 5 12 2 15 -10 10 -9 -3 -16 -3 -15 1 3 14 -21 60
-39 73 -23 17 -73 84 -73 98 0 5 -9 13 -21 16 -13 4 -18 12 -15 22 4 9 -1 17
-14 20 -16 4 -18 8 -9 19 9 11 16 10 40 -9 16 -12 31 -32 35 -44z m2654 42
c-7 -9 -23 -21 -34 -27 -14 -7 -11 -2 9 18 31 31 48 36 25 9z m160 5 c-6 -11
-12 -20 -14 -20 -2 0 -2 9 1 20 3 11 9 20 15 20 5 0 4 -9 -2 -20z m59 17 c-2
-1 -13 -9 -24 -17 -19 -14 -19 -14 -6 3 7 9 18 17 24 17 6 0 8 -1 6 -3z m27
-12 c-11 -8 -25 -15 -30 -15 -6 1 0 7 14 15 32 19 40 18 16 0z m-4015 -33 c-8
-3 -8 -10 1 -25 11 -22 11 -22 -11 -3 -15 13 -18 22 -10 27 7 4 8 12 3 20 -6
11 -3 10 10 -1 11 -8 14 -16 7 -18z m3799 25 c0 -2 -12 -14 -27 -28 l-28 -24
24 28 c23 25 31 32 31 24z m58 -11 c-10 -7 -18 -18 -18 -25 0 -6 -5 -11 -10
-11 -14 0 5 36 22 43 22 9 24 7 6 -7z m-3778 -18 c0 -6 -6 -5 -15 2 -8 7 -15
14 -15 16 0 2 7 1 15 -2 8 -4 15 -11 15 -16z m3835 -33 c-1 -19 -5 -38 -10
-42 -4 -5 -4 2 -1 15 6 18 4 22 -13 19 -11 -2 -30 -12 -43 -23 -20 -17 -20
-17 2 12 14 17 28 27 31 21 4 -5 12 0 18 12 16 28 17 27 16 -14z m-3935 -5 c0
-5 9 -11 19 -15 11 -3 26 -19 33 -35 7 -17 16 -30 20 -30 5 0 8 -5 8 -11 0 -6
7 -17 15 -25 8 -9 15 -11 15 -5 0 5 -4 13 -10 16 -14 9 -12 25 3 25 8 0 14 -6
15 -12 0 -7 3 -22 6 -33 2 -11 5 -28 5 -37 1 -10 5 -18 9 -18 12 0 7 62 -7 88
-9 17 -19 22 -32 19 -13 -4 -22 1 -27 11 -3 9 -12 23 -19 30 -15 16 -18 36 -3
27 6 -3 10 -2 10 4 0 18 45 -6 91 -48 48 -44 50 -56 3 -16 -46 40 -63 29 -20
-13 18 -17 23 -31 21 -54 -4 -29 -3 -30 9 -12 8 10 12 23 8 29 -3 5 2 4 11 -3
13 -11 15 -25 10 -79 -5 -49 -3 -64 5 -59 7 4 12 1 13 -6 1 -7 5 -2 10 12 l8
25 -2 -25 c-1 -16 -8 -25 -19 -25 -10 0 -17 -4 -17 -10 1 -5 4 -9 8 -8 4 1 8
-11 8 -28 l0 -29 -19 27 c-10 16 -18 37 -18 48 -1 22 -29 78 -30 57 0 -7 5
-21 12 -31 6 -10 8 -27 4 -37 -7 -15 -11 -10 -22 25 -7 25 -11 47 -9 51 2 3
-1 12 -6 20 -9 13 -10 13 -8 0 3 -29 -1 -41 -11 -35 -5 3 -10 16 -10 27 0 12
-3 19 -6 15 -10 -9 17 -108 27 -101 6 3 5 12 -2 20 -9 11 -9 18 -1 26 7 7 13
-2 20 -33 10 -52 4 -70 -15 -44 -12 18 -13 18 -13 -4 0 -12 4 -19 10 -16 15 9
12 -1 -10 -37 -20 -33 -29 -23 -11 11 5 9 6 23 1 31 -15 23 -24 -78 -10 -105
9 -17 10 -33 2 -62 l-11 -38 6 48 c3 31 2 47 -6 47 -6 0 -11 19 -11 47 0 48
-8 56 -12 10 -2 -19 -5 -23 -14 -16 -9 7 -16 5 -23 -8 -6 -10 -11 -13 -11 -7
0 6 3 14 8 18 4 4 8 12 8 17 3 22 6 23 14 4 6 -15 8 -11 8 18 -1 21 -4 33 -8
26 -6 -8 -9 -8 -14 0 -4 6 -4 15 -1 21 3 5 1 18 -5 27 -9 14 -10 7 -6 -32 5
-36 3 -46 -5 -38 -6 6 -12 34 -12 61 -1 42 -4 50 -19 49 -20 -1 -24 -12 -8
-22 15 -9 12 -32 -4 -32 -19 0 -30 58 -14 69 15 9 6 10 -16 2 -9 -3 -13 -11
-9 -18 4 -6 -2 -4 -13 4 -10 8 -16 10 -12 6 4 -5 4 -14 -2 -20 -5 -7 -5 -17 2
-26 8 -12 9 -12 4 3 -3 9 -1 17 4 17 6 0 10 -5 10 -11 0 -5 5 -7 10 -4 10 6
14 -13 11 -47 -1 -9 2 -19 7 -22 5 -3 8 5 8 17 -2 39 28 25 39 -18 12 -44 2
-94 -22 -108 -7 -4 -13 -16 -12 -25 0 -14 2 -14 8 2 5 13 10 16 15 8 4 -6 1
-22 -5 -34 -11 -21 -11 -22 4 -10 9 8 21 11 27 7 5 -3 10 -2 10 4 0 5 -4 13
-10 16 -14 8 -13 55 1 55 6 0 8 -7 5 -16 -3 -8 -2 -12 4 -9 6 3 10 13 10 21 0
8 4 14 9 14 4 0 6 -11 3 -25 -2 -14 -8 -25 -13 -25 -5 0 -9 -4 -9 -8 0 -4 9
-8 20 -8 12 0 19 5 16 13 -3 7 -2 15 3 17 14 9 9 -28 -7 -49 -11 -16 -13 -16
-9 -2 10 29 -11 19 -21 -10 -7 -18 -11 -22 -11 -10 -1 23 -17 22 -24 -3 -3
-11 -1 -18 3 -15 5 3 14 -3 20 -14 5 -11 6 -22 1 -25 -4 -3 -6 -17 -4 -31 3
-14 10 -22 16 -18 6 4 8 0 4 -10 -3 -10 -2 -17 4 -17 6 0 7 -5 3 -11 -3 -6 -1
-15 6 -19 7 -4 13 -22 14 -39 1 -22 5 -30 15 -26 10 4 11 2 3 -8 -7 -8 -7 -18
-2 -27 9 -13 10 -13 11 0 0 10 3 8 8 -5 5 -11 4 -25 -1 -32 -7 -9 -7 -13 1
-13 6 0 11 -4 11 -10 0 -55 -113 161 -193 370 -56 146 -115 348 -132 458 -6
34 -4 42 9 42 9 0 15 -3 14 -7 -3 -13 35 -83 44 -83 5 0 6 6 3 13 -4 6 3 1 14
-12 12 -13 21 -20 21 -16 0 5 8 -1 18 -11 26 -30 71 -56 83 -48 6 3 17 -2 24
-12 8 -11 15 -14 15 -7 0 11 -56 63 -69 63 -14 0 -42 58 -31 65 6 4 9 3 8 -2
-4 -12 31 -58 38 -50 4 4 13 -1 20 -11 10 -13 10 -7 -1 20 -18 45 -19 56 -3
40 15 -15 32 -16 23 -2 -3 6 -2 10 4 10 6 0 15 -9 21 -20 6 -11 8 -20 4 -20
-3 0 -1 -6 5 -13 6 -8 8 -17 4 -21 -4 -4 0 -4 10 0 9 3 17 2 18 -2 2 -23 8
-46 14 -52 3 -4 4 7 1 23 -3 17 -12 34 -19 40 -7 5 -19 25 -26 43 -7 17 -21
32 -30 32 -9 0 -23 5 -31 11 -13 9 -12 10 3 5 9 -3 17 -3 17 1 0 3 -8 12 -17
20 -16 13 -16 13 5 3 12 -6 22 -15 22 -20z m3825 20 c-3 -5 -14 -10 -23 -9
-14 0 -13 2 3 9 27 11 27 11 20 0z m165 -10 c0 -5 -5 -10 -11 -10 -5 0 -7 5
-4 10 3 6 8 10 11 10 2 0 4 -4 4 -10z m90 7 c0 -2 -11 -18 -25 -37 -14 -19
-25 -31 -25 -27 0 5 10 21 22 37 20 27 28 35 28 27z m-3936 -23 c24 -24 19
-30 -6 -8 -13 10 -25 20 -27 21 -2 2 1 3 7 3 6 0 18 -7 26 -16z m3864 -4 c-7
-10 -14 -17 -17 -15 -4 4 18 35 25 35 2 0 -1 -9 -8 -20z m-215 -2 c-13 -6 -24
-16 -24 -22 -1 -6 -2 -16 -3 -21 -2 -15 -56 -82 -56 -69 0 6 11 21 24 33 18
17 24 31 21 52 -2 16 0 27 5 24 5 -3 11 -1 15 5 3 5 14 10 23 9 13 0 12 -3 -5
-11z m-3838 -48 c5 -16 4 -22 -3 -15 -5 6 -12 24 -16 40 -7 34 7 15 19 -25z
m3865 17 c0 -7 -4 -6 -10 3 -9 14 -15 7 -10 -15 1 -5 -4 -4 -12 3 -11 11 -10
14 2 22 16 10 30 4 30 -13z m17 1 c-3 -8 -6 -5 -6 6 -1 11 2 17 5 13 3 -3 4
-12 1 -19z m60 0 c-3 -8 -6 -5 -6 6 -1 11 2 17 5 13 3 -3 4 -12 1 -19z m83 19
c0 -2 -10 -12 -22 -23 l-23 -19 19 23 c18 21 26 27 26 19z m173 -12 c-3 -9 -8
-14 -10 -11 -3 3 -2 9 2 15 9 16 15 13 8 -4z m-273 -10 c0 -2 -10 -9 -22 -15
-22 -11 -22 -10 -4 4 21 17 26 19 26 11z m231 -18 c-10 -9 -11 -8 -5 6 3 10 9
15 12 12 3 -3 0 -11 -7 -18z m-4186 -35 c9 -25 1 -21 -35 16 l-35 36 32 -19
c18 -10 35 -25 38 -33z m4285 39 c0 -5 -7 -12 -16 -15 -14 -5 -15 -4 -4 9 14
17 20 19 20 6z m-310 -5 c0 -3 -4 -8 -10 -11 -5 -3 -10 -1 -10 4 0 6 5 11 10
11 6 0 10 -2 10 -4z m118 -16 c-7 -10 -14 -17 -17 -15 -4 4 18 35 25 35 2 0
-1 -9 -8 -20z m-154 -49 c-19 -38 -23 -39 -16 -6 2 14 9 25 14 25 5 0 7 10 3
23 -5 18 -4 19 4 6 8 -12 6 -25 -5 -48z m196 56 c0 -2 -10 -12 -22 -23 l-23
-19 19 23 c18 21 26 27 26 19z m-259 -30 c-10 -9 -11 -8 -5 6 3 10 9 15 12 12
3 -3 0 -11 -7 -18z m49 13 c0 -5 -10 -15 -22 -21 l-23 -12 20 21 c23 24 25 25
25 12z m83 -5 c-3 -9 -8 -14 -10 -11 -3 3 -2 9 2 15 9 16 15 13 8 -4z m57 1
c0 -2 -8 -10 -17 -17 -16 -13 -17 -12 -4 4 13 16 21 21 21 13z m204 -11 c-4
-8 -8 -15 -10 -15 -2 0 -4 7 -4 15 0 8 4 15 10 15 5 0 7 -7 4 -15z m-4228 -32
c-7 -7 -26 7 -26 19 0 6 6 6 15 -2 9 -7 13 -15 11 -17z m3928 2 c-9 -14 -18
-25 -21 -25 -5 0 5 18 20 38 17 22 18 13 1 -13z m-4366 -5 c-7 -11 -16 -20
-21 -20 -4 0 -3 9 3 20 6 11 15 20 20 20 6 0 5 -9 -2 -20z m4552 11 c0 -5 -7
-12 -16 -15 -14 -5 -15 -4 -4 9 14 17 20 19 20 6z m-372 -26 c-3 -3 -9 2 -12
12 -6 14 -5 15 5 6 7 -7 10 -15 7 -18z m67 9 c0 -5 -13 -25 -28 -44 -16 -19
-24 -25 -18 -13 6 12 18 29 28 38 14 14 14 18 2 27 -12 8 -12 9 1 5 8 -2 15
-8 15 -13z m140 -5 c-3 -12 -7 -24 -10 -27 -3 -3 -3 5 -1 19 6 30 5 29 10 29
3 0 3 -10 1 -21z m83 4 c-9 -10 -13 -25 -11 -33 4 -13 3 -13 -6 0 -7 10 -6 19
6 32 21 23 31 23 11 1z m112 14 c0 -2 -10 -12 -22 -23 l-23 -19 19 23 c18 21
26 27 26 19z m14 -27 c-10 -16 -19 -28 -21 -26 -5 5 22 56 30 56 5 0 0 -13 -9
-30z m46 26 c0 -2 -8 -10 -17 -17 -16 -13 -17 -12 -4 4 13 16 21 21 21 13z
m-3946 -22 c3 -8 2 -12 -4 -9 -6 3 -10 10 -10 16 0 14 7 11 14 -7z m3513 1 c0
-8 -4 -12 -9 -9 -5 3 -6 10 -3 15 9 13 12 11 12 -6z m205 -7 c-7 -7 -12 -8
-12 -2 0 14 12 26 19 19 2 -3 -1 -11 -7 -17z m248 12 c0 -5 -5 -10 -11 -10 -5
0 -7 5 -4 10 3 6 8 10 11 10 2 0 4 -4 4 -10z m-380 -20 c0 -5 -5 -10 -11 -10
-5 0 -7 5 -4 10 3 6 8 10 11 10 2 0 4 -4 4 -10z m250 2 c0 -4 -13 -16 -30 -25
-25 -15 -29 -16 -24 -3 3 9 10 14 14 11 4 -3 13 2 20 10 14 17 20 19 20 7z
m-4466 -24 c3 -13 6 -32 6 -42 0 -10 8 -25 18 -32 16 -12 16 -13 -1 -20 -15
-6 -16 -9 -4 -23 15 -17 67 -177 67 -206 0 -40 -22 5 -59 125 -44 139 -60 220
-44 220 6 0 13 -10 17 -22z m4291 13 c3 -5 2 -12 -3 -15 -5 -3 -9 1 -9 9 0 17
3 19 12 6z m-4339 -16 c-3 -8 0 -15 6 -15 7 0 3 -7 -8 -15 -10 -8 -23 -14 -29
-15 -5 0 -4 4 4 9 16 10 24 41 11 41 -5 0 -11 -6 -13 -12 -3 -8 -6 -6 -6 5 -1
11 6 17 20 17 15 0 19 -5 15 -15z m669 5 c3 -5 1 -10 -4 -10 -6 0 -11 5 -11
10 0 6 2 10 4 10 3 0 8 -4 11 -10z m3639 -5 c3 -8 1 -15 -4 -15 -6 0 -10 7
-10 15 0 8 2 15 4 15 2 0 6 -7 10 -15z m270 -42 c-25 -26 -26 -26 -10 -3 9 14
20 34 23 45 6 17 8 18 11 3 2 -10 -9 -30 -24 -45z m430 23 c-3 -15 -8 -25 -11
-23 -2 3 -1 17 3 31 3 15 8 25 11 23 2 -3 1 -17 -3 -31z m-507 -1 c0 -8 -4
-12 -9 -9 -5 3 -6 10 -3 15 9 13 12 11 12 -6z m-3840 -17 c-3 -8 -6 -5 -6 6
-1 11 2 17 5 13 3 -3 4 -12 1 -19z m3700 0 c-3 -8 -6 -5 -6 6 -1 11 2 17 5 13
3 -3 4 -12 1 -19z m183 12 c0 -5 -5 -10 -11 -10 -5 0 -7 5 -4 10 3 6 8 10 11
10 2 0 4 -4 4 -10z m-3831 -60 c0 -9 -4 -8 -9 5 -5 11 -9 27 -9 35 0 9 4 8 9
-5 5 -11 9 -27 9 -35z m3571 30 c-6 -11 -13 -20 -16 -20 -2 0 0 9 6 20 6 11
13 20 16 20 2 0 0 -9 -6 -20z m188 -5 c-3 -3 -9 2 -12 12 -6 14 -5 15 5 6 7
-7 10 -15 7 -18z m42 -10 c-7 -9 -15 -13 -17 -11 -6 6 20 36 26 30 2 -2 -2
-10 -9 -19z m-149 -8 c-10 -9 -11 -8 -5 6 3 10 9 15 12 12 3 -3 0 -11 -7 -18z
m618 -26 c-7 -23 -14 -39 -16 -37 -3 2 1 23 8 45 7 23 14 39 16 37 3 -2 -1
-23 -8 -45z m-514 18 c11 -16 1 -19 -13 -3 -7 8 -8 14 -3 14 5 0 13 -5 16 -11z
m75 1 c0 -5 -5 -10 -11 -10 -5 0 -7 5 -4 10 3 6 8 10 11 10 2 0 4 -4 4 -10z
m-3857 -20 c-3 -11 -1 -26 5 -33 7 -8 7 -18 2 -27 -6 -8 -10 -11 -10 -6 0 5
-7 3 -15 -4 -8 -7 -12 -16 -9 -21 3 -5 1 -9 -5 -9 -5 0 -12 6 -14 13 -6 13
-11 -18 -7 -43 1 -8 -1 -12 -5 -8 -11 11 -12 52 -2 59 5 4 8 12 5 20 -2 7 -12
-5 -23 -27 -10 -21 -20 -33 -23 -26 -2 7 1 19 8 26 7 10 8 16 0 21 -15 9 -12
35 5 35 9 0 12 -6 8 -17 -5 -15 -3 -16 8 -5 10 9 10 15 1 24 -14 14 -16 28 -2
28 5 0 15 -18 21 -40 11 -37 13 -39 30 -25 9 9 15 24 12 35 -5 19 2 50 11 50
2 0 2 -9 -1 -20z m3661 -12 c-3 -31 -3 -30 -14 -23 -7 4 -7 13 0 26 14 25 17
24 14 -3z m127 -21 c-10 -9 -11 -8 -5 6 3 10 9 15 12 12 3 -3 0 -11 -7 -18z
m30 -10 c-10 -9 -11 -8 -5 6 3 10 9 15 12 12 3 -3 0 -11 -7 -18z m-826 3 c3
-6 -1 -7 -9 -4 -18 7 -21 14 -7 14 6 0 13 -4 16 -10z m-21 -25 c-4 -8 -10 -12
-15 -9 -11 6 -2 24 11 24 5 0 7 -7 4 -15z m653 -7 c-3 -8 -6 -5 -6 6 -1 11 2
17 5 13 3 -3 4 -12 1 -19z m637 -32 c-9 -26 -18 -45 -20 -43 -2 2 3 25 12 51
9 26 18 45 20 43 2 -2 -3 -25 -12 -51z m-4364 34 c0 -5 -4 -10 -10 -10 -5 0
-10 5 -10 10 0 6 5 10 10 10 6 0 10 -4 10 -10z m127 -25 c-7 -7 -14 -10 -17
-7 -3 4 -9 11 -15 15 -6 5 -3 7 8 3 12 -4 17 0 17 12 0 14 2 14 9 3 6 -9 5
-19 -2 -26z m40 -17 c-3 -7 -5 -2 -5 12 0 14 2 19 5 13 2 -7 2 -19 0 -25z
m-181 -34 c3 -27 3 -46 0 -43 -3 3 -8 27 -11 54 -4 27 -3 47 0 43 3 -3 9 -28
11 -54z m3735 33 c-10 -9 -11 -8 -5 6 3 10 9 15 12 12 3 -3 0 -11 -7 -18z
m-3611 -20 c0 -4 -6 -2 -14 5 -8 7 -12 17 -9 22 5 8 23 -12 23 -27z m-693 1
c-3 -8 -6 -5 -6 6 -1 11 2 17 5 13 3 -3 4 -12 1 -19z m655 -3 c3 -13 2 -22 -3
-20 -4 3 -9 2 -12 -2 -2 -5 -2 -2 0 5 1 8 3 20 3 28 0 22 7 16 12 -11z m2973
-3 c5 -14 4 -15 -6 -4 -17 16 -30 15 -23 -2 3 -8 0 -17 -7 -22 -8 -4 -10 -3
-5 4 4 7 2 12 -3 12 -8 0 -7 6 1 19 13 21 33 18 43 -7z m-3557 -4 c1 -7 3 -24
4 -38 2 -14 9 -30 17 -36 17 -13 8 -44 -14 -44 -8 0 -15 5 -15 10 0 6 5 9 11
8 6 -2 14 3 17 11 3 10 0 12 -12 8 -10 -4 -15 -3 -11 3 3 6 0 10 -7 10 -9 0
-9 3 2 10 13 8 12 10 -3 10 -15 0 -16 3 -7 20 7 14 7 20 0 20 -5 0 -10 -5 -10
-12 0 -6 -3 -8 -7 -4 -5 4 1 14 11 22 24 17 22 17 24 2z m652 -14 c-13 -34
-13 -47 2 -38 7 4 8 3 4 -5 -8 -12 -26 -6 -26 9 0 14 19 60 25 60 2 0 0 -12
-5 -26z m-106 0 c3 -8 2 -12 -3 -9 -6 3 -14 -3 -20 -12 -6 -10 -11 -15 -11
-10 0 6 22 47 26 47 1 0 5 -7 8 -16z m2869 -1 c-4 -10 -15 -25 -25 -34 -10 -9
-15 -19 -11 -22 3 -4 -5 -21 -19 -39 -14 -18 -33 -48 -43 -67 -9 -19 -21 -39
-26 -45 -14 -17 -50 -74 -104 -164 -28 -46 -57 -94 -65 -107 -8 -13 -39 -62
-69 -109 -29 -47 -57 -86 -61 -86 -4 0 -13 -13 -20 -30 -7 -16 -16 -30 -20
-30 -5 0 -17 -15 -29 -32 -11 -18 -21 -30 -21 -26 0 13 23 58 30 58 4 0 10 14
14 31 3 17 10 28 15 25 5 -4 13 4 17 16 3 13 15 35 25 49 10 14 16 29 14 33
-3 3 -2 4 2 1 3 -3 25 28 48 68 65 113 69 120 87 141 10 10 15 23 12 27 -2 4
0 10 6 14 6 4 7 11 4 17 -4 6 -2 8 4 4 6 -4 27 18 49 51 21 32 41 60 45 61 5
2 8 10 8 18 0 8 5 14 12 14 6 0 9 3 5 6 -3 4 8 26 26 50 18 23 45 61 60 83 30
44 40 52 30 24z m-2796 -15 c-3 -8 -6 -5 -6 6 -1 11 2 17 5 13 3 -3 4 -12 1
-19z m-74 -23 c-3 -9 -8 -14 -10 -11 -3 3 -2 9 2 15 9 16 15 13 8 -4z m2970 2
c-2 -4 -3 -11 -3 -17 0 -11 -33 -14 -43 -4 -9 9 16 32 33 29 8 -1 14 -5 13 -8z
m-2943 -12 c0 -8 -4 -15 -10 -15 -5 0 -7 7 -4 15 4 8 8 15 10 15 2 0 4 -7 4
-15z m30 5 c0 -5 -5 -10 -11 -10 -5 0 -7 5 -4 10 3 6 8 10 11 10 2 0 4 -4 4
-10z m2885 -33 c11 -8 14 -16 8 -20 -6 -4 -18 2 -28 13 -21 23 -8 27 20 7z
m-3072 -17 c-3 -12 -8 -19 -11 -16 -5 6 5 36 12 36 2 0 2 -9 -1 -20z m231 4
c3 -8 2 -12 -4 -9 -6 3 -10 10 -10 16 0 14 7 11 14 -7z m-187 -41 c-3 -10 -5
-2 -5 17 0 19 2 27 5 18 2 -10 2 -26 0 -35z m4354 20 c-12 -20 -14 -14 -5 12
4 9 9 14 11 11 3 -2 0 -13 -6 -23z m-4131 13 c0 -3 -4 -8 -10 -11 -5 -3 -10
-1 -10 4 0 6 5 11 10 11 6 0 10 -2 10 -4z m2785 -24 c-8 -8 -25 10 -19 20 4 6
9 5 15 -3 4 -7 6 -15 4 -17z m-2135 14 c0 -2 -7 -7 -16 -10 -8 -3 -12 -2 -9 4
6 10 25 14 25 6z m-843 -21 c0 -8 -4 -12 -9 -9 -5 3 -6 10 -3 15 9 13 12 11
12 -6z m2962 1 c13 -16 4 -49 -12 -39 -6 4 -8 0 -4 -11 6 -14 3 -15 -13 -6
-23 12 -26 34 -7 55 15 18 22 18 36 1z m-3046 -23 c-3 -7 -6 -13 -8 -13 -2 0
-5 6 -8 13 -3 8 1 14 8 14 7 0 11 -6 8 -14z m70 -18 c-3 -9 -8 -14 -10 -11 -3
3 -2 9 2 15 9 16 15 13 8 -4z m900 -25 c3 -11 1 -18 -4 -14 -5 3 -9 12 -9 20
0 20 7 17 13 -6z m2035 8 c16 -16 15 -31 0 -22 -10 5 -10 4 -1 -6 7 -8 8 -17
2 -24 -48 -58 -71 -103 -46 -90 7 3 3 -3 -9 -13 -12 -10 -24 -26 -27 -35 -4
-10 -11 -18 -17 -18 -6 0 -8 5 -4 12 4 6 3 8 -3 5 -6 -4 -9 -19 -7 -34 2 -20
-6 -37 -29 -60 -20 -21 -26 -33 -16 -33 8 -1 5 -5 -8 -13 -12 -7 -21 -14 -20
-17 1 -3 -8 -19 -20 -36 -12 -17 -20 -34 -16 -38 3 -3 0 -6 -9 -6 -8 0 -23
-10 -34 -22 l-19 -23 25 20 25 20 -15 -20 c-20 -27 -32 -35 -44 -28 -5 3 -6 1
-2 -5 4 -6 14 -9 24 -6 9 3 7 -1 -6 -8 -12 -8 -20 -17 -17 -20 4 -3 2 -9 -4
-13 -6 -3 -11 -1 -11 5 0 6 -5 8 -10 5 -6 -4 -8 -10 -5 -15 3 -5 -7 -16 -22
-25 -15 -9 -20 -14 -10 -11 9 3 17 2 17 -3 0 -5 -9 -11 -21 -14 -14 -4 -18
-10 -13 -19 6 -10 4 -10 -9 1 -16 13 -16 15 0 41 10 15 29 43 41 63 13 21 28
37 34 37 5 0 6 5 2 11 -3 6 -2 14 3 18 6 3 20 24 32 46 43 80 60 108 83 132
13 14 21 26 18 27 -7 3 43 76 53 76 4 0 7 9 7 19 0 11 10 32 23 48 30 38 46
64 53 86 7 20 16 21 32 5z m-1988 -68 c0 -5 -4 -10 -9 -10 -6 0 -13 5 -16 10
-3 6 1 10 9 10 9 0 16 -4 16 -10z m1988 -15 c-6 -14 -15 -25 -20 -25 -5 0 -1
11 8 25 9 14 18 25 20 25 2 0 -2 -11 -8 -25z m-1940 -56 c2 -9 -4 -19 -13 -23
-9 -3 -13 -2 -10 3 3 5 1 12 -5 16 -16 10 -11 27 7 23 10 -2 19 -10 21 -19z
m132 -34 c0 -3 -11 2 -24 12 -13 10 -21 24 -19 30 4 9 11 5 24 -11 10 -13 19
-27 19 -31z m-83 -35 c11 -17 10 -21 -10 -31 -12 -6 -19 -8 -15 -4 4 4 3 15
-2 25 -17 32 8 41 27 10z m158 -62 c33 -45 62 -86 65 -92 3 -6 38 -59 77 -118
40 -60 69 -108 65 -107 -8 0 -88 109 -117 159 -11 19 -31 47 -45 63 -14 16
-24 33 -22 38 1 5 -2 9 -8 9 -5 0 -10 7 -10 16 0 8 -4 13 -10 9 -5 -3 -16 7
-24 23 -8 16 -22 34 -30 41 -17 14 -22 41 -8 41 4 0 34 -37 67 -82z m-1425 42
c0 -5 -5 -10 -11 -10 -5 0 -7 5 -4 10 3 6 8 10 11 10 2 0 4 -4 4 -10z m3070 0
c0 -5 -5 -10 -11 -10 -5 0 -7 5 -4 10 3 6 8 10 11 10 2 0 4 -4 4 -10z m-2837
-21 c4 -16 3 -18 -9 -8 -16 13 -19 29 -5 29 5 0 11 -9 14 -21z m1074 -16 c7
-6 13 -16 13 -21 0 -6 7 -13 16 -16 8 -3 12 -10 9 -16 -3 -5 -3 -10 2 -10 4 0
22 -23 38 -50 17 -27 33 -50 38 -50 4 0 7 -7 7 -15 0 -8 5 -15 10 -15 6 0 10
-7 10 -15 0 -8 4 -15 10 -15 5 0 6 -7 3 -17 -4 -10 -2 -14 4 -10 6 4 16 -7 23
-23 7 -17 19 -30 26 -30 13 0 18 -15 17 -47 -1 -7 2 -11 6 -9 12 8 31 -10 36
-32 5 -30 -13 -28 -21 2 -4 16 -11 23 -20 19 -8 -3 -14 1 -14 9 0 7 -9 19 -20
26 -12 7 -18 17 -15 22 3 6 0 10 -8 10 -8 0 -21 8 -28 17 -12 14 -12 16 0 9 9
-6 12 -4 9 5 -3 8 -11 14 -19 14 -8 0 -13 8 -11 19 2 13 -1 16 -10 10 -10 -6
-10 -4 1 9 11 14 11 17 -1 17 -19 0 -45 33 -40 49 3 8 0 11 -6 7 -5 -3 -16 13
-23 39 -8 26 -21 47 -31 51 -11 3 -15 11 -11 21 5 12 3 14 -7 8 -8 -5 -11 -3
-8 6 3 8 -2 20 -11 27 -13 10 -13 12 -1 10 8 -2 20 -8 27 -15z m374 -375 c6
-12 6 -18 -1 -18 -5 0 -10 7 -10 15 0 8 -4 15 -9 15 -5 0 -12 7 -15 16 -6 14
-4 15 9 4 9 -7 21 -22 26 -32z m1093 0 c-3 -5 -12 -4 -22 4 -13 11 -14 10 -4
-8 9 -18 8 -24 -6 -35 -16 -13 -16 -13 -2 5 14 18 13 19 -2 13 -13 -4 -16 -2
-11 11 12 33 25 43 39 31 8 -6 11 -15 8 -21z m-144 -2 c0 -2 -8 -10 -17 -17
-16 -13 -17 -12 -4 4 13 16 21 21 21 13z m-1035 -46 c-3 -5 -12 -10 -18 -10
-7 0 -6 4 3 10 19 12 23 12 15 0z m1106 -17 c-12 -20 -14 -14 -5 12 4 9 9 14
11 11 3 -2 0 -13 -6 -23z m-1087 -8 c3 -8 1 -15 -4 -15 -6 0 -10 7 -10 15 0 8
2 15 4 15 2 0 6 -7 10 -15z m6 -35 c0 -5 -2 -10 -4 -10 -3 0 -8 5 -11 10 -3 6
-1 10 4 10 6 0 11 -4 11 -10z m-1005 -312 c16 -24 22 -38 14 -31 -15 12 -53
73 -46 73 2 0 17 -19 32 -42z m1664 -45 c-57 -62 -92 -97 -74 -73 26 34 88
100 94 100 3 0 -7 -12 -20 -27z m-158 -125 c16 -18 29 -37 29 -42 0 -5 -1 -7
-2 -5 -2 2 -19 21 -37 42 -19 20 -32 37 -27 37 4 0 20 -15 37 -32z m276 -151
c14 1 20 -3 16 -10 -4 -6 0 -8 8 -5 8 3 20 -1 28 -9 12 -13 11 -14 -7 -9 -11
4 -23 2 -27 -3 -4 -7 1 -8 11 -4 13 5 15 3 9 -7 -5 -8 -3 -11 6 -8 8 3 19 -4
25 -15 7 -11 21 -21 32 -22 12 -1 19 2 16 7 -3 4 2 8 11 8 9 0 13 -5 10 -11
-4 -6 0 -9 11 -7 14 2 19 -3 18 -19 -1 -13 3 -20 7 -17 5 3 9 -1 9 -9 0 -21
37 -28 51 -10 20 24 47 34 55 21 4 -6 3 -8 -3 -5 -16 10 -52 -21 -50 -43 1
-20 9 -24 36 -21 7 2 10 -2 6 -9 -5 -8 1 -11 16 -8 15 2 23 -2 22 -9 -2 -7 2
-13 9 -13 6 0 8 -3 5 -7 -4 -3 11 -19 34 -34 22 -14 36 -29 31 -33 -6 -3 -12
-1 -14 6 -3 7 -7 5 -11 -6 -4 -9 -3 -15 2 -11 5 3 12 1 16 -5 8 -13 45 -13 45
-1 0 5 17 8 39 6 24 -3 52 3 75 14 20 10 33 14 30 7 -3 -6 4 0 15 14 11 14 21
21 21 17 0 -5 15 1 33 13 26 17 24 14 -12 -19 -62 -58 -172 -111 -231 -111
-56 0 -113 18 -103 33 3 6 1 7 -5 3 -14 -9 -85 38 -74 49 4 5 2 5 -4 2 -14 -8
-76 37 -66 48 4 5 0 6 -9 3 -9 -4 -22 -2 -30 3 -12 7 -12 9 1 9 9 1 5 6 -10
14 -14 8 -28 12 -32 10 -3 -2 -9 0 -13 6 -3 5 0 10 7 10 7 0 0 7 -16 15 -15 8
-34 15 -41 15 -7 0 -16 7 -19 16 -3 8 -11 12 -17 8 -8 -4 -9 -3 -5 4 4 7 1 12
-9 12 -8 0 -18 7 -21 15 -4 8 -12 15 -19 15 -16 0 -31 53 -16 58 6 2 11 10 11
17 0 8 8 12 23 9 12 -2 16 -2 9 2 -18 9 -3 27 17 18 9 -4 26 -7 38 -7z m-350
-42 c0 -8 -4 -15 -8 -15 -5 0 -6 -7 -3 -15 8 -20 21 -19 27 3 4 14 5 14 6 1 0
-9 -9 -31 -22 -50 -41 -61 -43 -66 -21 -49 11 8 2 -2 -20 -23 -63 -57 -245
-179 -258 -171 -6 4 -8 3 -5 -3 7 -12 -66 -67 -117 -88 -58 -25 -132 -19 -204
15 -65 31 -136 79 -128 88 3 2 12 -3 21 -12 9 -9 21 -14 26 -11 5 4 9 0 9 -7
0 -11 2 -10 9 0 6 11 10 10 15 -3 4 -11 13 -15 26 -12 11 3 20 1 20 -4 0 -5
11 -8 25 -7 14 1 25 6 25 11 0 4 9 3 20 -3 16 -8 20 -8 18 2 -2 7 3 12 10 10
6 -1 12 7 12 17 0 14 5 18 20 14 24 -6 27 12 4 21 -9 4 -14 9 -10 13 3 3 16
-2 28 -13 12 -10 18 -13 14 -6 -4 6 -2 12 3 12 6 0 11 10 11 22 0 21 0 21 16
2 8 -10 13 -13 9 -6 -6 11 39 38 58 33 5 -1 6 3 2 9 -3 6 -11 8 -16 5 -5 -4
-17 -1 -26 5 -17 10 -16 10 2 8 11 -1 26 1 34 6 10 6 19 3 29 -10 10 -14 13
-14 9 -3 -6 18 27 51 40 41 4 -4 -1 4 -12 18 -11 13 -13 20 -5 14 32 -23 47
-23 46 -1 -1 19 4 22 34 20 28 -2 31 -1 15 6 -18 9 -18 10 -2 10 10 1 28 -4
40 -10 l22 -12 -20 23 -20 23 22 -12 c30 -15 32 -14 26 12 -4 18 -3 19 6 7 9
-12 13 -13 20 -2 4 8 11 13 15 13 20 -3 26 1 26 15 0 14 3 14 15 4 13 -11 14
-10 9 4 -4 11 -1 16 10 16 8 0 20 9 26 20 13 24 17 25 17 5z m1493 -168 c0 -2
-12 -14 -27 -28 l-28 -24 24 28 c23 25 31 32 31 24z m-370 -40 c-19 -17 -56
-50 -82 -72 -49 -43 -48 -43 14 -48 9 -1 14 -5 12 -9 -3 -4 6 -8 20 -8 16 0
26 -6 26 -15 0 -9 9 -15 22 -15 12 0 18 -3 15 -7 -4 -3 0 -15 9 -25 14 -15 15
-20 3 -34 -13 -16 -12 -16 8 -4 12 8 19 18 16 24 -3 5 -2 6 4 3 13 -8 50 18
146 102 l82 73 -80 -77 c-123 -118 -250 -195 -321 -195 -21 0 -202 107 -203
120 -1 3 19 11 43 17 48 14 166 90 241 157 28 25 52 45 55 45 3 0 -11 -14 -30
-32z m-1925 -57 c3 -6 -1 -7 -9 -4 -18 7 -21 14 -7 14 6 0 13 -4 16 -10z
m-100 -20 c10 -11 16 -20 13 -20 -3 0 -13 9 -23 20 -10 11 -16 20 -13 20 3 0
13 -9 23 -20z m200 -138 c33 -16 75 -33 94 -37 l34 -7 -47 -29 c-49 -31 -66
-36 -66 -19 0 6 -33 26 -74 44 -40 19 -77 39 -81 46 -6 9 -2 9 16 -1 22 -11
23 -11 10 4 -7 10 -10 17 -5 17 5 0 2 5 -6 10 -12 8 -10 10 9 10 23 0 22 2
-15 36 l-39 35 55 -39 c30 -22 82 -53 115 -70z m-146 -43 c-8 -5 -22 -9 -32
-9 -10 0 -15 -5 -12 -10 4 -6 11 -8 16 -5 5 4 21 -3 35 -14 28 -22 63 -18 43
5 -9 11 92 -28 109 -41 2 -2 -18 -14 -43 -29 -49 -27 -81 -26 -161 4 -23 9
-26 13 -14 22 12 8 12 9 -3 4 -23 -7 -80 21 -71 35 3 6 -2 16 -12 23 -17 13
-16 14 4 25 12 6 22 8 22 4 0 -5 15 -14 33 -21 l32 -12 -30 28 c-17 15 -26 24
-19 19 14 -9 46 2 39 13 -3 5 14 -1 36 -12 32 -15 39 -22 28 -29z"/>
<path d="M7650 9046 c0 -2 8 -10 18 -17 15 -13 16 -12 3 4 -13 16 -21 21 -21
13z"/>
<path d="M2794 9438 l-19 -23 23 19 c12 11 22 21 22 23 0 8 -8 2 -26 -19z"/>
<path d="M4385 5370 c3 -5 8 -10 11 -10 2 0 4 5 4 10 0 6 -5 10 -11 10 -5 0
-7 -4 -4 -10z"/>
<path d="M3080 5690 c0 -5 10 -10 23 -10 17 0 19 -2 7 -10 -8 -5 -11 -12 -7
-17 5 -4 12 -1 17 7 7 11 5 19 -7 28 -20 15 -33 16 -33 2z"/>
<path d="M3007 5634 c8 -21 31 -25 26 -5 -2 10 -10 18 -18 18 -7 0 -11 -6 -8
-13z"/>
<path d="M2860 5598 c0 -5 -4 -7 -9 -4 -5 4 -4 -7 2 -23 8 -21 15 -27 22 -21
7 6 15 7 19 3 4 -4 4 1 0 11 -5 14 -4 17 4 12 18 -11 15 -47 -3 -40 -8 4 -15
2 -15 -3 0 -14 34 -43 51 -43 10 1 9 3 -3 11 -13 7 -16 17 -11 39 3 17 0 36
-6 44 -14 17 -51 28 -51 14z m24 -23 c-4 -8 -10 -12 -15 -9 -14 8 -10 24 6 24
9 0 12 -6 9 -15z"/>
<path d="M3193 5540 c-5 -22 -7 -37 -2 -35 9 6 23 64 17 70 -2 3 -9 -13 -15
-35z"/>
<path d="M2934 5558 c6 -27 25 -62 25 -47 1 8 -4 20 -11 27 -8 8 -8 12 -1 12
6 0 16 -7 23 -15 7 -8 17 -15 22 -15 5 0 -4 11 -20 25 -34 28 -41 31 -38 13z"/>
<path d="M3063 5552 c10 -10 17 -27 18 -38 0 -12 3 -14 6 -6 6 16 -16 62 -30
62 -6 0 -3 -8 6 -18z"/>
<path d="M3026 5505 c-3 -9 -6 -24 -5 -33 0 -9 5 -4 10 12 9 32 6 48 -5 21z"/>
<path d="M2880 5495 c0 -5 5 -17 10 -25 5 -8 10 -10 10 -5 0 6 -5 17 -10 25
-5 8 -10 11 -10 5z"/>
<path d="M3051 5479 c0 -13 3 -19 5 -12 3 7 12 9 20 6 8 -3 14 1 14 8 0 7 -3
9 -7 6 -3 -4 -12 -2 -20 4 -10 9 -13 6 -12 -12z"/>
<path d="M3070 5448 c0 -4 4 -8 9 -8 5 0 12 -10 14 -22 3 -18 5 -16 6 8 1 21
-4 31 -14 31 -8 0 -15 -4 -15 -9z"/>
<path d="M2931 5404 c0 -11 3 -14 6 -6 3 7 2 16 -1 19 -3 4 -6 -2 -5 -13z"/>
<path d="M3072 5400 c0 -14 2 -19 5 -12 2 6 2 18 0 25 -3 6 -5 1 -5 -13z"/>
<path d="M2927 5367 c-3 -8 1 -14 8 -14 7 0 11 6 8 14 -3 7 -6 13 -8 13 -2 0
-5 -6 -8 -13z"/>
<path d="M2982 5315 c0 -46 1 -48 10 -22 7 19 7 36 1 50 -8 18 -10 13 -11 -28z"/>
<path d="M2951 5328 c-5 -13 -6 -25 -2 -28 3 -3 8 -8 12 -13 3 -4 5 8 5 28 -1
41 -4 43 -15 13z"/>
<path d="M5580 3460 c-9 -6 -10 -10 -3 -10 6 0 15 5 18 10 8 12 4 12 -15 0z"/>
<path d="M3960 3136 c0 -2 7 -7 16 -10 8 -3 12 -2 9 4 -6 10 -25 14 -25 6z"/>
</g>
</svg>
